<svg xmlns="http://www.w3.org/2000/svg" xmlns:xlink="http://www.w3.org/1999/xlink" viewBox="0 0 578 578"><defs><style>.cls-1{fill:#f6921e;}.cls-2{isolation:isolate;}.cls-3{fill:#afafaf;}.cls-4{fill:none;stroke:#fff;stroke-miterlimit:10;stroke-dasharray:5;}.cls-5{fill:#e6e7e8;}.cls-10,.cls-5{mix-blend-mode:multiply;}.cls-6{fill:#fff;}.cls-7{fill:#aec800;}.cls-8{fill:#bed333;}.cls-10,.cls-9{fill:#9db631;}.cls-11{clip-path:url(#clip-path);}.cls-12{fill:#faaf40;}</style><clipPath id="clip-path"><path class="cls-1" d="M343.54,238.17H320.46l22.67-134.5A5.65,5.65,0,0,1,349.64,99l11.3,1.9a5.65,5.65,0,0,1,4.63,6.51Z"/></clipPath></defs><title>smoothie</title><g class="cls-2"><g id="background"><rect class="cls-3" width="578" height="578"/><path class="cls-4" d="M555.41,561.9c-54.72-6.3-110.35-2-165,.21H142.78C104,562.11,65,557.77,26,559.94c-1.45-23.84-4.34-47-3.61-71V427.23C21.68,401,26,375,26.73,349c1.44-57.08-8.67-114.88-2.25-171.74q0.39-8.72.65-17.43A1179.57,1179.57,0,0,0,22.4,37.42c0-4.28,0-7.93,0-10.91V17.34h84.72c6.51,0,13,0,19.5,0,59.79,3.58,119.76,2.13,179.65,0q9,0.65,18,1.22c54,3.43,108,4.6,161.88-1.24h17.78c6.37,0,12.25,0,17.57,0,11.69,0,22.53.75,34.09-.7-10.84,60.69-5.78,121.38-.15,182.91,0,4.63.05,9.23,0.05,13.86V397.07c0,4.86,0,9.66,0,14.38,0.09,33.84-1,67.39-.4,101.33q0.13,7.27.38,14.57,0,8.25,0,14.63C555.44,554.71,555.41,561.9,555.41,561.9Z"/></g><g id="objects"><ellipse class="cls-5" cx="288.66" cy="463.27" rx="82.69" ry="15.76"/><polygon class="cls-6" points="354.77 467.51 228.3 467.51 209.46 170.44 372.03 170.44 354.77 467.51"/><polygon class="cls-7" points="225.07 238.17 238.61 451.65 344.4 451.65 356.81 238.17 225.07 238.17"/><polygon class="cls-8" points="280.59 451.65 256.39 451.65 244.3 238.17 268.49 238.17 280.59 451.65"/><polygon class="cls-9" points="344.4 451.65 316.31 451.65 310.42 238.17 356.81 238.17 344.4 451.65"/><circle class="cls-10" cx="272.93" cy="296.11" r="3.92"/><circle class="cls-10" cx="333.87" cy="372.75" r="3.92"/><circle class="cls-10" cx="280.59" cy="402.05" r="3.92"/><circle class="cls-10" cx="328.75" cy="322.89" r="3.92"/><circle class="cls-10" cx="248.22" cy="340.99" r="3.92"/><circle class="cls-10" cx="328.75" cy="275.45" r="3.92"/><circle class="cls-10" cx="287.28" cy="359.78" r="2.84"/><circle class="cls-10" cx="324.83" cy="425.59" r="2.84"/><circle class="cls-10" cx="265.28" cy="436.57" r="2.84"/><circle class="cls-10" cx="265.28" cy="422.75" r="2.84"/><circle class="cls-10" cx="319.15" cy="275.45" r="2.84"/><path class="cls-1" d="M343.54,238.17H320.46l22.67-134.5A5.65,5.65,0,0,1,349.64,99l11.3,1.9a5.65,5.65,0,0,1,4.63,6.51Z"/><g class="cls-11"><rect class="cls-12" x="345.89" y="99.56" width="11.75" height="55.82" transform="translate(155.2 445.82) rotate(-78.23)"/><rect class="cls-12" x="340.67" y="124.56" width="11.75" height="55.82" transform="translate(126.58 460.62) rotate(-78.23)"/><rect class="cls-12" x="334.53" y="154.07" width="11.75" height="55.82" transform="translate(92.8 478.09) rotate(-78.23)"/><rect class="cls-12" x="328.48" y="183.07" width="11.75" height="55.82" transform="translate(59.59 495.25) rotate(-78.23)"/></g></g></g></svg>